#define WIFI_icon_width 10
#define WIFI_icon_height 10
static unsigned char WIFI_icon_bits[] = {
   0x1c, 0x00, 0x60, 0x00, 0x8c, 0x00, 0x30, 0x01, 0x44, 0x01, 0x58, 0x02,
   0x92, 0x02, 0xa6, 0x02, 0x0f, 0x00, 0x03, 0x00 };
